PathFileType	4	(X/Y/Z)	C:/Users/beibeiliu/ov580/test_trc/User2\sequence.19_training_dense_right.trc
DataRate	CameraRate	NumFrames	NumMarkers	Units	OrigDataRate	OrigDataStartFrame	OrigNumFrames
120	120	8	19	mm	120	63	500
Frame#	Time	ThumbCMC			ThumbMCP			ThumbIP			ThumbTip			IndexMCP			IndexPIP			IndexTip			MiddleMCP			MiddlePIP			MiddleTip			RingMCP			RingPIP			RingTip			PinkyMCP			PinkyPIP			PinkyTip			BackHand1			BackHand2			BackHand3	
		X0	Y0	Z0	X1	Y1	Z1	X2	Y2	Z2	X3	Y3	Z3	X4	Y4	Z4	X5	Y5	Z5	X6	Y6	Z6	X7	Y7	Z7	X8	Y8	Z8	X9	Y9	Z9	X10	Y10	Z10	X11	Y11	Z11	X12	Y12	Z12	X13	Y13	Z13	X14	Y14	Z14	X15	Y15	Z15	X16	Y16	Z16	X17	Y17	Z17	X18	Y18	Z18	
62	0.516667	38.7954	9.33645	39.015	13.5776	4.35642	23.571	-12.1575	1.96318	-3.21967	-27.8481	-3.8067	-17.5069	43.5196	18.4221	-43.5685	35.7811	14.308	-70.2574	24.1743	9.10564	-98.4574	70.8239	15.3442	-60.1231	63.9823	9.49879	-87.6979	63.7329	-0.869537	-120.982	94.8709	2.46814	-53.6935	91.1522	-1.03156	-83.0121	92.2064	-7.33547	-112.322	116.256	-11.3791	-39.0893	117.468	-16.3485	-66.4723	119.744	-18.1919	-92.1977	101.027	13.3957	3.27624	111.059	18.4606	35.1271	70.7586	25.8283	20.3126	
63	0.525	37.3927	8.55114	37.5652	12.93	4.00697	21.8116	-12.5961	1.07608	-1.23984	-30.1964	-5.39675	-19.993	43.5387	18.4431	-44.7105	29.2308	16.9505	-72.2423	27.153	7.96793	-100.274	71.0228	14.4594	-57.223	65.9235	9.31044	-85.7376	65.2889	-0.294544	-122.215	95.0431	2.43548	-53.1132	94.6508	-2.84128	-80.5606	92.7197	-8.29831	-108.076	115.344	-11.3532	-39.3562	114.824	-16.2101	-63.3689	121.281	-17.8741	-89.045	101.048	15.2526	-0.0799339	108.738	18.2042	36.0116	68.0274	26.0505	21.017	
64	0.533333	40.0881	7.21577	42.4835	10.4349	4.34105	21.3571	-12.9911	-1.54986	1.88026	-28.1365	-7.57608	-19.6557	39.1344	20.86	-42.0405	28.3153	16.7257	-73.7065	25.4244	8.85404	-99.9366	66.4679	16.6009	-57.0471	66.5357	9.02606	-87.7693	61.0773	1.84843	-118.638	93.1831	3.76637	-54.1806	94.9398	-1.82246	-84.637	90.3028	-6.28975	-107.257	112.742	-9.75375	-41.1381	116.484	-15.769	-66.6657	122.942	-17.9948	-88.8279	101.597	14.439	-0.66616	109.173	19.2555	34.4524	70.5071	25.9917	22.7747	
65	0.541667	38.2429	7.81	41.2244	14.149	2.02037	23.0572	-11.7376	-1.52411	1.88366	-26.7343	-9.49063	-16.243	40.1519	20.8308	-41.9813	33.1645	15.8042	-73.1243	25.9787	10.2887	-96.6643	70.4831	17.074	-59.9413	65.6628	10.4911	-86.8605	59.5286	2.53248	-116.446	90.3312	5.18411	-56.5056	90.219	-0.0290987	-81.9636	87.4298	-5.39878	-110.511	112.206	-9.1769	-43.1548	117.747	-16.5866	-69.0337	119.352	-17.9854	-89.6147	101.486	14.7926	2.72126	107.031	18.1266	36.3673	71.9243	28.1807	20.195	
66	0.55	37.6898	8.58035	41.6162	13.8617	1.95693	25.5788	-13.4431	-0.879655	0.574475	-26.2962	-9.21949	-16.7274	40.882	21.066	-45.0474	29.9579	19.5486	-68.7484	22.5855	12.1405	-99.4244	69.1561	18.726	-55.2232	64.9112	12.7906	-87.1658	61.0389	2.34872	-120.065	92.7927	6.18738	-58.1611	92.1973	0.661107	-84.4765	87.8064	-4.4898	-108.743	113.15	-7.94874	-41.7285	115.706	-14.4716	-63.7702	122.892	-18.5728	-90.4581	103.245	15.9248	-0.734935	108.688	17.5887	33.6025	71.6541	26.9584	23.8555	
67	0.558333	37.3099	10.4509	42.6573	13.5425	3.82814	25.1357	-9.99091	-0.62941	-0.152336	-28.1306	-7.57887	-14.3971	41.7874	24.1745	-44.2249	29.7602	21.6399	-70.5393	25.409	14.0949	-98.6669	66.1258	21.7106	-58.423	65.9392	15.7017	-86.8062	62.3967	6.30644	-117.309	94.2954	8.67705	-52.7056	92.0265	3.8551	-79.9434	89.1461	-2.74984	-108.331	115.492	-7.59326	-40.5135	115.648	-12.0991	-69.29	122.063	-15.8767	-89.3696	101.979	17.224	3.43399	111.727	19.6589	36.4438	69.2143	30.0324	22.3198	
68	0.566667	38.3277	10.0278	42.9615	15.5266	3.98259	27.2811	-15.1158	0.73583	4.89949	-30.0835	-5.7457	-12.5311	42.9321	26.0187	-41.1363	34.5464	24.6874	-68.7571	23.3626	17.8236	-95.5973	70.732	24.5157	-58.6606	66.9656	18.462	-86.3111	62.6321	9.84513	-118.022	95.5794	10.8481	-54.151	91.1689	6.91291	-79.9158	87.7104	2.17416	-111.225	113.847	-5.11257	-41.8862	114.38	-10.8157	-64.0932	119.838	-13.0933	-92.6255	100.371	19.202	4.58834	109.919	20.5094	33.7826	73.8692	29.8234	22.1177	
69	0.575	41.4923	10.5511	38.512	15.8772	5.20185	26.6791	-13.5316	2.68114	2.48466	-28.7764	-5.05604	-10.7543	39.2078	29.9368	-43.565	31.6722	28.091	-69.1543	23.974	21.4059	-95.4289	68.8795	27.4043	-55.4876	64.0099	22.8742	-86.0905	64.5907	11.8135	-118.634	94.1531	13.224	-52.3793	89.997	9.32232	-78.8174	91.6255	2.99961	-110.02	111.63	-2.30729	-43.9107	118.724	-10.2016	-64.2584	121.423	-12.9015	-89.0663	102.906	19.9754	1.34789	106.89	21.8011	37.8242	70.9255	29.762	27.2721	
